<svg width="12" height="12" viewBox="0 0 12 12" fill="none" xmlns="http://www.w3.org/2000/svg">
<path d="M8.11412 3.52313L11.3794 4.01995C11.6498 4.05978 11.877 4.25663 11.9633 4.52613C12.0497 4.79797 11.9792 5.09325 11.7838 5.29479L9.41613 7.6898L9.97511 11.1253C10.0206 11.4065 9.90921 11.6924 9.68198 11.8588C9.45703 12.0252 9.15936 12.0463 8.91623 11.9127L5.99865 10.3074L3.08333 11.9127C2.83793 12.0463 2.54026 12.0252 2.31531 11.8588C2.09035 11.6924 1.97674 11.4065 2.02446 11.1253L2.58343 7.6898L0.215281 5.29479C0.0196393 5.09325 -0.049892 4.79797 0.0359995 4.52613C0.121664 4.25663 0.348208 4.05978 0.620653 4.01995L3.88317 3.52313L5.34651 0.422036C5.46694 0.16388 5.72143 0 5.99865 0C6.27813 0 6.53263 0.16388 6.65306 0.422036L8.11412 3.52313Z" fill="#0065FC"/>
</svg>
